<?xml version="1.0" standalone="no"?>
<!DOCTYPE svg PUBLIC "-//W3C//DTD SVG 20010904//EN"
 "http://www.w3.org/TR/2001/REC-SVG-20010904/DTD/svg10.dtd">
<svg version="1.0" xmlns="http://www.w3.org/2000/svg"
 width="225.000000pt" height="225.000000pt" viewBox="0 0 225.000000 225.000000"
 preserveAspectRatio="xMidYMid meet">
<metadata>
Created by potrace 1.14, written by Peter Selinger 2001-2017
</metadata>
<g transform="translate(0.000000,225.000000) scale(0.100000,-0.100000)"
fill="#000000" stroke="none">
<path d="M517 2133 c-33 -35 -64 -106 -77 -175 -6 -29 -15 -150 -21 -268 -5
-118 -13 -250 -16 -293 -3 -49 1 -116 10 -180 29 -187 31 -174 -30 -203 -83
-40 -62 -75 24 -39 73 31 85 10 23 -42 -73 -63 -36 -89 42 -30 l43 33 84 -72
c72 -62 163 -118 222 -137 15 -5 15 -12 -4 -84 -14 -57 -21 -117 -23 -225 l-2
-147 -36 -47 c-20 -26 -36 -53 -36 -61 0 -23 28 -70 45 -77 25 -9 543 -6 595
4 25 4 59 13 75 18 17 6 64 15 106 20 152 18 277 108 340 245 30 65 33 83 37
183 4 90 1 118 -13 147 -21 45 -62 61 -114 47 -86 -24 -109 -71 -121 -240 -7
-106 -12 -136 -30 -165 -27 -44 -66 -65 -123 -65 l-44 0 -6 98 c-7 112 -25
186 -68 284 -17 38 -28 75 -26 82 3 7 27 19 54 26 61 16 162 65 234 113 31 20
59 37 63 37 3 0 25 -12 47 -27 34 -22 42 -24 50 -12 14 22 11 29 -28 65 -27
25 -34 37 -26 45 9 9 20 9 44 0 73 -25 91 -2 38 51 l-31 31 18 61 c21 75 22
244 1 329 -14 54 -13 64 7 135 18 67 21 104 21 278 0 230 -3 240 -67 231 -55
-7 -172 -70 -251 -134 l-68 -55 -52 21 c-29 11 -72 26 -97 33 -56 15 -329 15
-419 0 l-64 -11 -64 59 c-61 58 -192 140 -224 140 -8 0 -27 -12 -42 -27z m948
-661 c67 -33 106 -95 106 -170 1 -85 -39 -147 -116 -183 -126 -59 -275 42
-275 185 0 60 56 146 110 168 69 28 118 28 175 0z m-558 -37 c131 -66 139
-251 15 -336 -51 -35 -163 -35 -214 0 -61 42 -83 85 -83 162 0 59 4 73 30 111
59 85 158 109 252 63z"/>
<path d="M1231 1344 c-12 -15 -21 -32 -21 -39 0 -7 9 -24 21 -39 41 -52 119
-25 119 41 0 62 -80 87 -119 37z"/>
<path d="M851 1314 c-12 -15 -21 -30 -21 -35 0 -26 23 -58 50 -69 28 -12 34
-11 58 7 35 26 41 74 13 102 -30 30 -75 27 -100 -5z"/>
</g>
</svg>
